<svg width="40" height="40" viewBox="0 0 40 40" fill="none" xmlns="http://www.w3.org/2000/svg">
<g clip-path="url(#clip0_11_27)">
<path opacity="0.98" d="M20.0266 0C14.1642 0 9.38977 4.78424 9.38977 10.6466C9.38977 14.4148 11.3678 17.7254 14.3341 19.6158C6.05572 22.0762 0 29.7428 0 38.811C3.31651e-05 39.1431 0.131947 39.4615 0.36673 39.6963C0.601512 39.931 0.919936 40.063 1.25197 40.063H38.811C39.1431 40.063 39.4615 39.931 39.6963 39.6963C39.9311 39.4615 40.063 39.1431 40.063 38.811C40.063 29.7411 34.0047 22.0748 25.7241 19.6158C28.6921 17.7252 30.6732 14.414 30.6732 10.6466C30.6732 4.78424 25.889 0 20.0266 0ZM20.0266 2.50394C24.5358 2.50394 28.1693 6.13745 28.1693 10.6466C28.1693 15.1542 24.5384 18.7769 20.0315 18.7795C20.0299 18.7795 20.0283 18.7795 20.0266 18.7795C15.5174 18.7795 11.8937 15.1558 11.8937 10.6466C11.8937 6.13745 15.5174 2.50394 20.0266 2.50394ZM20.0266 21.2835C20.0283 21.2835 20.0299 21.2835 20.0315 21.2835C29.2975 21.2835 36.7829 28.4618 37.4344 37.5591H2.62865C3.27996 28.4635 10.7629 21.286 20.0266 21.2835Z" fill="white" fill-opacity="0.8"/>
</g>
<defs>
<clipPath id="clip0_11_27">
<rect width="40" height="40" fill="white"/>
</clipPath>
</defs>
</svg>
