<svg width="30" height="31" viewBox="0 0 30 31" fill="none" xmlns="http://www.w3.org/2000/svg">
<path d="M30 1.79877C30 2.19659 29.8871 2.57812 29.6862 2.85943C29.4853 3.14073 29.2127 3.29877 28.9286 3.29877H1.07143C0.787268 3.29877 0.514746 3.14073 0.313814 2.85943C0.112882 2.57812 0 2.19659 0 1.79877C0 1.40094 0.112882 1.01941 0.313814 0.738107C0.514746 0.456803 0.787268 0.298767 1.07143 0.298767H28.9286C29.2127 0.298767 29.4853 0.456803 29.6862 0.738107C29.8871 1.01941 30 1.40094 30 1.79877ZM24.6429 13.7988H1.07143C0.787268 13.7988 0.514746 13.9568 0.313814 14.2381C0.112882 14.5194 0 14.9009 0 15.2988C0 15.6966 0.112882 16.0781 0.313814 16.3594C0.514746 16.6407 0.787268 16.7988 1.07143 16.7988H24.6429C24.927 16.7988 25.1995 16.6407 25.4005 16.3594C25.6014 16.0781 25.7143 15.6966 25.7143 15.2988C25.7143 14.9009 25.6014 14.5194 25.4005 14.2381C25.1995 13.9568 24.927 13.7988 24.6429 13.7988ZM15 27.2988H1.07143C0.787268 27.2988 0.514746 27.4568 0.313814 27.7381C0.112882 28.0194 0 28.4009 0 28.7988C0 29.1966 0.112882 29.5781 0.313814 29.8594C0.514746 30.1407 0.787268 30.2988 1.07143 30.2988H15C15.2842 30.2988 15.5567 30.1407 15.7576 29.8594C15.9585 29.5781 16.0714 29.1966 16.0714 28.7988C16.0714 28.4009 15.9585 28.0194 15.7576 27.7381C15.5567 27.4568 15.2842 27.2988 15 27.2988Z" fill="white" fill-opacity="0.8"></path>
</svg>
