<svg width="30" height="31" fill="none" xmlns="http://www.w3.org/2000/svg"><path d="M30 1.799c0 .398-.113.78-.314 1.06-.2.282-.473.44-.757.44H1.07c-.284 0-.556-.158-.757-.44C.113 2.58 0 2.197 0 1.8s.113-.78.314-1.06c.2-.282.473-.44.757-.44H28.93c.284 0 .556.158.757.44.201.28.314.662.314 1.06Zm-5.357 12H1.07c-.284 0-.556.158-.757.44-.201.28-.314.662-.314 1.06s.113.78.314 1.06c.2.282.473.44.757.44h23.572c.284 0 .556-.158.758-.44.2-.28.313-.662.313-1.06s-.113-.78-.313-1.06c-.201-.282-.474-.44-.758-.44ZM15 27.299H1.071c-.284 0-.556.158-.757.44-.201.28-.314.662-.314 1.06s.113.78.314 1.06c.2.282.473.44.757.44H15c.284 0 .557-.158.758-.44.2-.28.313-.662.313-1.06s-.113-.78-.313-1.06c-.201-.282-.474-.44-.758-.44Z" fill="#fff" fill-opacity=".8"/></svg>