<svg width="40" height="40" fill="none" xmlns="http://www.w3.org/2000/svg"><g clip-path="url('#clip0_11_36')" fill="#fff" fill-opacity=".8"><path d="M25.704 4.943C25.302 2.125 22.85 0 20 0a5.784 5.784 0 0 0-4.656 2.367.678.678 0 1 0 1.094.8A4.426 4.426 0 0 1 20 1.355a4.425 4.425 0 0 1 4.362 3.778.679.679 0 0 0 1.342-.191ZM35.496 12.532l-2.034-3.39a.677.677 0 0 0-.581-.329h-1.95a.678.678 0 0 0 0 1.356h1.566l1.22 2.034H6.283l1.22-2.034h.718a.678.678 0 0 0 0-1.356H7.118a.677.677 0 0 0-.581.33l-2.034 3.39a.679.679 0 0 0 .581 1.026h29.83a.678.678 0 0 0 .582-1.027Z"/><path d="M32.117 6.281a.677.677 0 0 0-.422-.303l-9.242-2.161a.68.68 0 0 0-.814.505l-.697 2.98a.677.677 0 1 0 1.32.308l.542-2.319 7.922 1.853-1.245 5.322a.677.677 0 1 0 1.32.309l1.4-5.982a.675.675 0 0 0-.084-.512ZM20.358 7.884l-.617-5.225a.677.677 0 0 0-.753-.594l-11.34 1.34a.678.678 0 0 0-.593.753l1.03 8.715a.678.678 0 1 0 1.346-.16l-.95-8.041 9.993-1.181.538 4.551a.679.679 0 0 0 1.346-.158Z"/><path d="m25.72 12.624-1.346-5.596a.68.68 0 0 0-.817-.5L12.635 9.153a.678.678 0 0 0-.5.818l.672 2.797a.677.677 0 1 0 1.318-.317l-.514-2.138 9.603-2.31 1.187 4.937a.678.678 0 1 0 1.319-.317Z"/><path d="M35.593 12.847a.678.678 0 0 0-.678-.643H5.085a.678.678 0 0 0-.678.643l-1.356 26.44A.678.678 0 0 0 3.73 40H36.27a.681.681 0 0 0 .678-.713l-1.356-26.44ZM4.442 38.644l1.286-25.085h28.543l1.286 25.085H4.442Z"/><path d="M25.084 14.915a2.036 2.036 0 0 0-2.034 2.034c0 1.122.913 2.034 2.034 2.034a2.036 2.036 0 0 0 2.034-2.034 2.036 2.036 0 0 0-2.034-2.034Zm0 2.712a.679.679 0 1 1 .002-1.357.679.679 0 0 1-.002 1.357ZM14.915 14.915a2.036 2.036 0 0 0-2.034 2.034c0 1.122.912 2.034 2.034 2.034a2.036 2.036 0 0 0 2.034-2.034 2.036 2.036 0 0 0-2.034-2.034Zm0 2.712a.679.679 0 1 1 .001-1.357.679.679 0 0 1-.001 1.357Z"/><path d="M25.084 16.949h-.052a.678.678 0 0 0-.625.94v3.467A4.412 4.412 0 0 1 20 25.762a4.412 4.412 0 0 1-4.407-4.406v-3.729a.678.678 0 0 0-1.356 0v3.729A5.77 5.77 0 0 0 20 27.118a5.77 5.77 0 0 0 5.762-5.762v-3.729a.678.678 0 0 0-.678-.678Z"/></g><defs><clipPath id="clip0_11_36"><path fill="#fff" d="M0 0h40v40H0z"/></clipPath></defs></svg>