<svg width="40" height="40" viewBox="0 0 40 40" fill="none" xmlns="http://www.w3.org/2000/svg">
<g clip-path="url('#clip0_11_36')">
<path d="M25.7043 4.94272C25.3023 2.12506 22.8497 0 19.9997 0C18.1668 0 16.4261 0.884467 15.3438 2.36679C15.1227 2.66909 15.1888 3.09315 15.4911 3.31422C15.7925 3.53449 16.2175 3.46914 16.4382 3.16644C17.2666 2.0329 18.5978 1.356 19.9995 1.356C22.1792 1.356 24.0544 2.98033 24.3618 5.134C24.4103 5.47225 24.7005 5.71636 25.0324 5.71636C25.064 5.71636 25.0965 5.71398 25.1289 5.70961C25.4995 5.65657 25.7572 5.31316 25.7043 4.94272Z" fill="white" fill-opacity="0.8"></path>
<path d="M35.4962 12.5323L33.4623 9.14241C33.34 8.93803 33.1193 8.81329 32.881 8.81329H30.9319C30.5577 8.81329 30.254 9.11699 30.254 9.49119C30.254 9.8654 30.5577 10.1691 30.9319 10.1691H32.4972L33.7176 12.203H6.28163L7.50197 10.1691H8.21999C8.59419 10.1691 8.89789 9.8654 8.89789 9.49119C8.89789 9.11699 8.59419 8.81329 8.21999 8.81329H7.11823C6.87988 8.81329 6.65921 8.93803 6.53686 9.14241L4.50296 12.5323C4.37724 12.742 4.37426 13.0028 4.49442 13.2154C4.61459 13.4279 4.83983 13.5594 5.08433 13.5594H34.9149C35.1594 13.5594 35.3844 13.4279 35.5048 13.2154C35.6251 13.0028 35.622 12.7417 35.4962 12.5323Z" fill="white" fill-opacity="0.8"></path>
<path d="M32.1168 6.28107C32.0219 6.12793 31.8703 6.01928 31.6952 5.97837L22.4531 3.81676C22.2781 3.77564 22.0937 3.80623 21.9408 3.90078C21.7883 3.99572 21.6794 4.14727 21.6385 4.32245L20.9415 7.30179C20.8561 7.66626 21.0826 8.03093 21.4472 8.11594C21.8117 8.20135 22.1768 7.97492 22.2618 7.61025L22.8044 5.29133L30.7261 7.14428L29.4813 12.4664C29.3959 12.8308 29.6223 13.1955 29.987 13.2805C30.0392 13.2926 30.0911 13.2984 30.1423 13.2984C30.4502 13.2984 30.7289 13.0875 30.8014 12.775L32.2007 6.79292C32.242 6.61793 32.2118 6.43361 32.1168 6.28107Z" fill="white" fill-opacity="0.8"></path>
<path d="M20.3582 7.88373L19.7405 2.65897C19.7194 2.48041 19.6283 2.31734 19.4869 2.20611C19.3454 2.09488 19.1669 2.04403 18.9875 2.06509L7.64815 3.40539C7.27653 3.44948 7.01077 3.78635 7.05467 4.15837L8.08453 12.8725C8.12544 13.2175 8.41801 13.4712 8.75706 13.4712C8.78348 13.4712 8.81069 13.4694 8.8377 13.4664C9.20913 13.4223 9.47488 13.0855 9.43119 12.7134L8.48078 4.67201L18.4737 3.491L19.0115 8.04243C19.0556 8.41426 19.3909 8.67842 19.7645 8.63631C20.1362 8.59262 20.4019 8.25556 20.3582 7.88373Z" fill="white" fill-opacity="0.8"></path>
<path d="M25.72 12.6236L24.3744 7.02764C24.3322 6.85305 24.2224 6.7019 24.0693 6.60795C23.9161 6.5148 23.7324 6.4856 23.5566 6.52731L12.635 9.1539C12.2709 9.24129 12.0469 9.60755 12.1343 9.97162L12.8068 12.7686C12.8942 13.1331 13.2604 13.3573 13.6243 13.2694C13.9884 13.182 14.2124 12.8157 14.125 12.4516L13.6108 10.3137L23.2142 8.00447L24.4014 12.941C24.4758 13.2519 24.7539 13.4604 25.06 13.4604C25.1126 13.4604 25.1659 13.4543 25.2193 13.4414C25.5834 13.3538 25.8074 12.9877 25.72 12.6236Z" fill="white" fill-opacity="0.8"></path>
<path d="M35.5925 12.8467C35.5739 12.4864 35.2763 12.2036 34.9152 12.2036H5.08473C4.72363 12.2036 4.4261 12.4862 4.40743 12.8467L3.05143 39.2873C3.0419 39.4728 3.10903 39.6544 3.23694 39.789C3.36506 39.9235 3.54262 40 3.72853 40H36.2708C36.4565 40 36.6343 39.9237 36.763 39.789C36.8907 39.6544 36.9579 39.473 36.9485 39.2873L35.5925 12.8467ZM4.44199 38.644L5.72846 13.5593H34.2707L35.5572 38.644H4.44199Z" fill="white" fill-opacity="0.8"></path>
<path d="M25.0844 14.9152C23.9628 14.9152 23.0505 15.8274 23.0505 16.9491C23.0505 18.0707 23.9628 18.9829 25.0844 18.9829C26.2061 18.9829 27.1183 18.0707 27.1183 16.9491C27.1183 15.8274 26.2061 14.9152 25.0844 14.9152ZM25.0844 17.6272C24.7104 17.6272 24.4065 17.3231 24.4065 16.9493C24.4065 16.5754 24.7106 16.2714 25.0844 16.2714C25.4582 16.2714 25.7623 16.5754 25.7623 16.9493C25.7623 17.3231 25.4582 17.6272 25.0844 17.6272Z" fill="white" fill-opacity="0.8"></path>
<path d="M14.9149 14.9152C13.7933 14.9152 12.881 15.8274 12.881 16.9491C12.881 18.0707 13.7933 18.9829 14.9149 18.9829C16.0366 18.9829 16.9488 18.0707 16.9488 16.9491C16.9488 15.8274 16.0366 14.9152 14.9149 14.9152ZM14.9149 17.6272C14.5411 17.6272 14.237 17.3231 14.237 16.9493C14.237 16.5754 14.5411 16.2714 14.9149 16.2714C15.2887 16.2714 15.5928 16.5754 15.5928 16.9493C15.5928 17.3231 15.2887 17.6272 14.9149 17.6272Z" fill="white" fill-opacity="0.8"></path>
<path d="M25.0844 16.949H25.0322C24.658 16.949 24.3543 17.2527 24.3543 17.6269C24.3543 17.7195 24.3726 17.8079 24.4065 17.8883V21.3557C24.4065 23.7854 22.4296 25.7625 19.9997 25.7625C17.5697 25.7625 15.5929 23.7856 15.5929 21.3557V17.6271C15.5929 17.2529 15.2892 16.9492 14.915 16.9492C14.5408 16.9492 14.2371 17.2529 14.2371 17.6271V21.3559C14.2371 24.5334 16.8221 27.1185 19.9997 27.1185C23.1773 27.1185 25.7623 24.5334 25.7623 21.3559V17.6271C25.7623 17.2529 25.4586 16.949 25.0844 16.949Z" fill="white" fill-opacity="0.8"></path>
</g>
<defs>
<clipPath id="clip0_11_36">
<rect width="40" height="40" fill="white"></rect>
</clipPath>
</defs>
</svg>
