<svg width="40" height="40" fill="none" xmlns="http://www.w3.org/2000/svg"><g clip-path="url('#clip0_11_31')"><path d="M28.438 2.5A11.58 11.58 0 0 0 20 6.162a11.562 11.562 0 0 0-20 7.9C0 25.575 18.569 36.876 19.375 37.32a1.249 1.249 0 0 0 1.288 0C21.43 36.875 40 25.575 40 14.062A11.575 11.575 0 0 0 28.437 2.5ZM20 34.775c-3.231-2.063-17.5-11.7-17.5-20.712a9.062 9.062 0 0 1 16.475-5.207 1.25 1.25 0 0 0 2.044 0A9.062 9.062 0 0 1 37.5 14.063c0 9.006-14.269 18.643-17.5 20.712Z" fill="#fff" fill-opacity=".8"/></g><defs><clipPath id="clip0_11_31"><path fill="#fff" d="M0 0h40v40H0z"/></clipPath></defs></svg>