<svg width="40" height="40" fill="none" xmlns="http://www.w3.org/2000/svg"><g clip-path="url('#clip0_11_27')"><path opacity=".98" d="M20.027 0C14.164 0 9.39 4.784 9.39 10.647c0 3.768 1.978 7.078 4.944 8.969C6.056 22.076 0 29.743 0 38.81a1.252 1.252 0 0 0 1.252 1.252h37.559a1.252 1.252 0 0 0 1.252-1.252c0-9.07-6.058-16.736-14.339-19.195 2.968-1.89 4.95-5.202 4.95-8.97C30.673 4.785 25.888 0 20.026 0Zm0 2.504a8.127 8.127 0 0 1 8.142 8.143c0 4.507-3.63 8.13-8.137 8.132h-.005a8.11 8.11 0 0 1-8.133-8.132 8.119 8.119 0 0 1 8.133-8.143Zm0 18.78h.005c9.265 0 16.75 7.178 17.402 16.275H2.63c.651-9.095 8.134-16.273 17.398-16.275Z" fill="#fff" fill-opacity=".8"/></g><defs><clipPath id="clip0_11_27"><path fill="#fff" d="M0 0h40v40H0z"/></clipPath></defs></svg>